<svg xmlns="http://www.w3.org/2000/svg" viewBox="0 0 1920 1080" preserveAspectRatio="xMidYMid slice"><defs><linearGradient id="sky" x1="0" y1="0" x2="0" y2="1"><stop stop-color="#061326"/><stop offset=".55" stop-color="#0b2b48"/><stop offset="1" stop-color="#07111f"/></linearGradient><radialGradient id="sun"><stop stop-color="#62ddff" stop-opacity=".75"/><stop offset="1" stop-color="#62ddff" stop-opacity="0"/></radialGradient><linearGradient id="road" x1="0" y1="0" x2="0" y2="1"><stop stop-color="#263d52"/><stop offset="1" stop-color="#03070d"/></linearGradient></defs><rect width="1920" height="1080" fill="url(#sky)"/><circle cx="1450" cy="330" r="330" fill="url(#sun)"/><g fill="#10243a"><path d="M0 650V520h110v130h80V430h125v220h70V350h155v300h90V470h110v180h90V390h135v260h80V300h170v350h85V455h130v195h90V370h170v280h110V500h125v150h110V430h160v220h150V560h100v90h80v430H0z"/></g><g fill="#193d5b" opacity=".9"><path d="M0 720h260V550h70v170h150V490h90v230h130V580h100v140h190V450h80v270h170V530h120v190h150V470h80v250h180V570h100v150h180V500h90v220h190v360H0z"/></g><g fill="#62ddff" opacity=".45"><path d="M330 570h14v90h-14zm20 0h14v90h-14zm380-65h14v120h-14zm20 0h14v120h-14zm390-25h14v140h-14zm20 0h14v140h-14zm370 35h14v110h-14zm20 0h14v110h-14z"/></g><path d="M0 930 L700 690 L1250 690 L1920 930 L1920 1080 L0 1080Z" fill="url(#road)"/><path d="M0 930 L960 730 L1920 930" fill="none" stroke="#62ddff" stroke-opacity=".28" stroke-width="4"/><path d="M840 1080 L960 730 L1080 1080" fill="none" stroke="#d7ff55" stroke-opacity=".45" stroke-width="5"/><g fill="#d7ff55"><circle cx="680" cy="825" r="5"/><circle cx="1260" cy="825" r="5"/><circle cx="520" cy="900" r="4"/><circle cx="1400" cy="900" r="4"/></g></svg>